<?xml version="1.0" encoding="utf-8"?>
<!-- Generator: $$$/GeneralStr/196=Adobe Illustrator 27.6.0, SVG Export Plug-In . SVG Version: 6.00 Build 0)  -->
<svg version="1.1" xmlns="http://www.w3.org/2000/svg" xmlns:xlink="http://www.w3.org/1999/xlink" x="0px" y="0px"
	 viewBox="0 0 250 42" style="enable-background:new 0 0 250 42;" xml:space="preserve">
<style type="text/css">
	.st0{fill:#FFFFFF;}
	.st1{display:none;}
	.st2{display:inline;}
	.st3{fill:#008C3C;stroke:#008C3C;}
	.st4{fill:none;stroke:#008C3C;}
	.st5{fill:#FFFFFF;filter:url(#Adobe_OpacityMaskFilter);}
	
		.st6{mask:url(#path-4-inside-1_9_87_00000076582870712993973470000014563024025993513651_);fill:none;stroke:#008C3C;stroke-width:2;}
	.st7{fill:#008C3C;}
	.st8{fill:none;stroke:#008C3C;stroke-linecap:square;}
	.st9{fill:none;stroke:#008C3C;stroke-miterlimit:10;}
	.st10{fill:none;stroke:#BBB8B8;stroke-width:0.5;}
</style>
<g id="Capa_2">
	<rect class="st0" width="250" height="42"/>
</g>
<g id="RECOGIDA" class="st1">
	<g class="st2">
		<rect x="10.2" y="1" class="st0" width="40" height="40"/>
		<path class="st3" d="M28.1,21.2l-0.3-1.6l2.9,0.3L28.1,21.2z"/>
		<path class="st4" d="M23,29h15.1 M24.7,26.5L23,15.5l11.3-2.1l2.5,10.9L24.7,26.5z"/>
		<defs>
			<filter id="Adobe_OpacityMaskFilter" filterUnits="userSpaceOnUse" x="24.4" y="10.9" width="8.2" height="5.8">
				<feColorMatrix  type="matrix" values="1 0 0 0 0  0 1 0 0 0  0 0 1 0 0  0 0 0 1 0"/>
			</filter>
		</defs>
		
			<mask maskUnits="userSpaceOnUse" x="24.4" y="10.9" width="8.2" height="5.8" id="path-4-inside-1_9_87_00000076582870712993973470000014563024025993513651_">
			<path class="st5" d="M31.5,14.4c-0.1-0.8-0.6-1.5-1.3-2c-0.7-0.5-1.5-0.6-2.3-0.5c-0.8,0.1-1.5,0.6-2,1.3
				c-0.5,0.7-0.6,1.5-0.5,2.3l3-0.6L31.5,14.4z"/>
		</mask>
		<path class="st6" d="M31.5,14.4c-0.1-0.8-0.6-1.5-1.3-2c-0.7-0.5-1.5-0.6-2.3-0.5c-0.8,0.1-1.5,0.6-2,1.3
			c-0.5,0.7-0.6,1.5-0.5,2.3l3-0.6L31.5,14.4z"/>
	</g>
	<g class="st2">
		<path d="M61.2,25v-7.7h3c0.7,0,1.3,0.1,1.7,0.3s0.8,0.5,1.1,0.9c0.3,0.4,0.4,0.9,0.4,1.4c0,0.6-0.1,1-0.4,1.4
			c-0.3,0.4-0.6,0.7-1.1,0.9s-1.1,0.3-1.7,0.3h-2.4l0.5-0.5V25H61.2z M66.3,25l-2-2.8h1.2l2,2.8H66.3z M62.3,22.3l-0.5-0.5h2.4
			c0.7,0,1.2-0.2,1.6-0.5c0.4-0.3,0.5-0.7,0.5-1.3c0-0.5-0.2-1-0.5-1.3c-0.4-0.3-0.9-0.5-1.6-0.5h-2.4l0.5-0.5V22.3z M71.4,25.1
			c-0.6,0-1.2-0.1-1.7-0.4c-0.5-0.3-0.8-0.6-1.1-1.1c-0.3-0.4-0.4-1-0.4-1.5c0-0.6,0.1-1.1,0.4-1.5c0.3-0.4,0.6-0.8,1-1
			c0.4-0.3,0.9-0.4,1.5-0.4c0.6,0,1.1,0.1,1.5,0.4c0.4,0.2,0.8,0.6,1,1.1c0.2,0.4,0.4,1,0.4,1.6c0,0,0,0.1,0,0.2c0,0.1,0,0.1,0,0.2
			h-5v-0.8h4.4L73,21.9c0-0.4-0.1-0.7-0.2-1c-0.2-0.3-0.4-0.5-0.7-0.7c-0.3-0.2-0.6-0.3-1-0.3c-0.4,0-0.7,0.1-1,0.3
			c-0.3,0.2-0.5,0.4-0.7,0.7c-0.2,0.3-0.2,0.6-0.2,1v0.2c0,0.4,0.1,0.7,0.3,1c0.2,0.3,0.4,0.5,0.8,0.7s0.7,0.3,1.1,0.3
			c0.3,0,0.7-0.1,0.9-0.2c0.3-0.1,0.5-0.3,0.7-0.5l0.6,0.7c-0.3,0.3-0.6,0.5-1,0.7C72.3,25,71.9,25.1,71.4,25.1z M77.8,25.1
			c-0.6,0-1.1-0.1-1.6-0.4c-0.5-0.3-0.8-0.6-1.1-1.1s-0.4-1-0.4-1.5c0-0.6,0.1-1.1,0.4-1.5s0.6-0.8,1.1-1c0.5-0.3,1-0.4,1.6-0.4
			c0.5,0,1,0.1,1.4,0.3c0.4,0.2,0.7,0.5,1,0.9l-0.8,0.5c-0.2-0.3-0.4-0.5-0.7-0.6c-0.3-0.1-0.6-0.2-0.9-0.2c-0.4,0-0.7,0.1-1,0.3
			c-0.3,0.2-0.5,0.4-0.7,0.7c-0.2,0.3-0.3,0.7-0.3,1.1c0,0.4,0.1,0.8,0.3,1.1c0.2,0.3,0.4,0.5,0.7,0.7c0.3,0.2,0.6,0.3,1,0.3
			c0.3,0,0.6-0.1,0.9-0.2c0.3-0.1,0.5-0.4,0.7-0.6l0.8,0.5c-0.2,0.4-0.5,0.7-1,0.9C78.8,25,78.4,25.1,77.8,25.1z M83.8,25.1
			c-0.6,0-1.1-0.1-1.6-0.4c-0.5-0.3-0.8-0.6-1.1-1.1c-0.3-0.5-0.4-1-0.4-1.5c0-0.6,0.1-1.1,0.4-1.5s0.6-0.8,1.1-1
			c0.5-0.3,1-0.4,1.6-0.4c0.6,0,1.1,0.1,1.6,0.4c0.5,0.2,0.8,0.6,1.1,1c0.3,0.4,0.4,1,0.4,1.5c0,0.6-0.1,1.1-0.4,1.5
			c-0.3,0.4-0.6,0.8-1.1,1.1C84.9,24.9,84.3,25.1,83.8,25.1z M83.8,24.1c0.4,0,0.7-0.1,1-0.3c0.3-0.2,0.5-0.4,0.7-0.7
			c0.2-0.3,0.3-0.7,0.3-1.1c0-0.4-0.1-0.8-0.3-1.1c-0.2-0.3-0.4-0.5-0.7-0.7c-0.3-0.2-0.6-0.3-1-0.3s-0.7,0.1-1,0.3
			c-0.3,0.2-0.5,0.4-0.7,0.7c-0.2,0.3-0.3,0.7-0.3,1.1c0,0.4,0.1,0.8,0.3,1.1c0.2,0.3,0.4,0.5,0.7,0.7
			C83.1,24.1,83.4,24.1,83.8,24.1z M90.6,27.2c-0.5,0-1.1-0.1-1.6-0.2c-0.5-0.1-0.9-0.4-1.2-0.6l0.5-0.8c0.3,0.2,0.6,0.4,1,0.5
			c0.4,0.1,0.8,0.2,1.2,0.2c0.7,0,1.2-0.2,1.5-0.5c0.3-0.3,0.5-0.8,0.5-1.5v-1.2l0.1-1.2l-0.1-1.2v-1.6h1v5c0,1-0.3,1.8-0.8,2.3
			C92.3,27,91.6,27.2,90.6,27.2z M90.4,24.8c-0.6,0-1.1-0.1-1.5-0.4c-0.4-0.2-0.8-0.6-1.1-1c-0.3-0.4-0.4-0.9-0.4-1.5
			c0-0.6,0.1-1.1,0.4-1.5c0.3-0.4,0.6-0.8,1.1-1c0.4-0.2,1-0.4,1.5-0.4c0.5,0,1,0.1,1.4,0.3c0.4,0.2,0.7,0.5,1,0.9
			c0.2,0.4,0.4,0.9,0.4,1.6c0,0.6-0.1,1.2-0.4,1.6c-0.2,0.4-0.6,0.7-1,0.9C91.4,24.7,90.9,24.8,90.4,24.8z M90.6,23.8
			c0.4,0,0.7-0.1,1-0.2c0.3-0.2,0.5-0.4,0.7-0.7c0.2-0.3,0.3-0.6,0.3-1s-0.1-0.7-0.3-1c-0.2-0.3-0.4-0.5-0.7-0.7
			c-0.3-0.2-0.6-0.2-1-0.2c-0.4,0-0.7,0.1-1,0.2c-0.3,0.2-0.5,0.4-0.7,0.7c-0.2,0.3-0.3,0.6-0.3,1s0.1,0.7,0.3,1
			c0.2,0.3,0.4,0.5,0.7,0.7C89.8,23.8,90.2,23.8,90.6,23.8z M95.4,25v-5.8h1.1V25H95.4z M95.9,18c-0.2,0-0.4-0.1-0.5-0.2
			c-0.1-0.1-0.2-0.3-0.2-0.5c0-0.2,0.1-0.4,0.2-0.5c0.1-0.1,0.3-0.2,0.5-0.2s0.4,0.1,0.5,0.2c0.1,0.1,0.2,0.3,0.2,0.5
			c0,0.2-0.1,0.4-0.2,0.5C96.3,18,96.1,18,95.9,18z M100.7,25.1c-0.6,0-1.1-0.1-1.5-0.4c-0.4-0.2-0.8-0.6-1-1
			c-0.3-0.4-0.4-1-0.4-1.6c0-0.6,0.1-1.1,0.4-1.6c0.3-0.4,0.6-0.8,1-1c0.4-0.2,1-0.4,1.5-0.4c0.5,0,0.9,0.1,1.3,0.3
			c0.4,0.2,0.7,0.6,0.9,1c0.2,0.4,0.4,1,0.4,1.6c0,0.7-0.1,1.2-0.4,1.7c-0.2,0.4-0.5,0.8-0.9,1C101.6,25,101.2,25.1,100.7,25.1z
			 M100.8,24.1c0.4,0,0.7-0.1,1-0.3c0.3-0.2,0.5-0.4,0.7-0.7c0.2-0.3,0.3-0.7,0.3-1.1c0-0.4-0.1-0.8-0.3-1.1
			c-0.2-0.3-0.4-0.5-0.7-0.7c-0.3-0.2-0.6-0.3-1-0.3c-0.4,0-0.7,0.1-1,0.3c-0.3,0.2-0.5,0.4-0.7,0.7c-0.2,0.3-0.3,0.7-0.3,1.1
			c0,0.4,0.1,0.8,0.3,1.1c0.2,0.3,0.4,0.5,0.7,0.7C100,24.1,100.4,24.1,100.8,24.1z M102.7,25v-1.6l0.1-1.4l-0.1-1.4v-3.9h1.1V25
			H102.7z M109.2,25v-1.2l-0.1-0.2v-2.1c0-0.4-0.1-0.8-0.4-1c-0.3-0.2-0.6-0.4-1.2-0.4c-0.3,0-0.7,0.1-1,0.2
			c-0.3,0.1-0.6,0.3-0.8,0.5l-0.4-0.8c0.3-0.2,0.7-0.4,1.1-0.6c0.4-0.1,0.9-0.2,1.3-0.2c0.8,0,1.4,0.2,1.8,0.6
			c0.4,0.4,0.6,1,0.6,1.8V25H109.2z M107.2,25.1c-0.4,0-0.8-0.1-1.1-0.2c-0.3-0.1-0.6-0.3-0.7-0.6c-0.2-0.3-0.3-0.6-0.3-0.9
			c0-0.3,0.1-0.6,0.2-0.9c0.2-0.3,0.4-0.5,0.7-0.6c0.3-0.2,0.8-0.2,1.4-0.2h1.8v0.8h-1.8c-0.5,0-0.9,0.1-1.1,0.3
			c-0.2,0.2-0.3,0.4-0.3,0.6c0,0.3,0.1,0.5,0.3,0.7c0.2,0.2,0.5,0.3,0.9,0.3c0.4,0,0.7-0.1,1-0.3c0.3-0.2,0.5-0.4,0.6-0.8l0.2,0.7
			c-0.1,0.3-0.4,0.6-0.7,0.8C108.2,25,107.8,25.1,107.2,25.1z M117.2,25.1c-0.6,0-1.2-0.1-1.6-0.4c-0.5-0.3-0.8-0.6-1.1-1.1
			c-0.3-0.4-0.4-1-0.4-1.5c0-0.6,0.1-1.1,0.4-1.5c0.3-0.4,0.6-0.8,1-1c0.4-0.3,0.9-0.4,1.5-0.4c0.6,0,1.1,0.1,1.5,0.4
			c0.4,0.2,0.8,0.6,1,1.1c0.2,0.4,0.4,1,0.4,1.6c0,0,0,0.1,0,0.2c0,0.1,0,0.1,0,0.2h-5v-0.8h4.4l-0.4,0.3c0-0.4-0.1-0.7-0.2-1
			c-0.2-0.3-0.4-0.5-0.7-0.7c-0.3-0.2-0.6-0.3-1-0.3c-0.4,0-0.7,0.1-1,0.3c-0.3,0.2-0.5,0.4-0.7,0.7c-0.2,0.3-0.2,0.6-0.2,1v0.2
			c0,0.4,0.1,0.7,0.3,1c0.2,0.3,0.4,0.5,0.8,0.7c0.3,0.2,0.7,0.3,1.1,0.3c0.3,0,0.7-0.1,0.9-0.2c0.3-0.1,0.5-0.3,0.7-0.5l0.6,0.7
			c-0.3,0.3-0.6,0.5-1,0.7C118.1,25,117.7,25.1,117.2,25.1z M124.3,19.1c0.5,0,0.9,0.1,1.3,0.3c0.4,0.2,0.7,0.5,0.9,0.8
			c0.2,0.4,0.3,0.8,0.3,1.4V25h-1.1v-3.2c0-0.6-0.1-1-0.4-1.3c-0.3-0.3-0.7-0.4-1.2-0.4c-0.4,0-0.7,0.1-1,0.2
			c-0.3,0.1-0.5,0.4-0.6,0.6c-0.1,0.3-0.2,0.6-0.2,1.1v3h-1.1v-5.8h1v1.6l-0.2-0.4c0.2-0.4,0.5-0.7,0.9-0.9
			C123.3,19.2,123.7,19.1,124.3,19.1z M133.1,25.1c-0.6,0-1-0.2-1.4-0.5c-0.3-0.3-0.5-0.8-0.5-1.4v-5.3h1.1v5.3
			c0,0.3,0.1,0.6,0.2,0.7c0.2,0.2,0.4,0.3,0.7,0.3c0.3,0,0.6-0.1,0.8-0.3l0.3,0.8c-0.2,0.1-0.4,0.2-0.6,0.3
			C133.6,25,133.4,25.1,133.1,25.1z M130.3,20v-0.9h3.7V20H130.3z M135.5,25v-5.8h1.1V25H135.5z M136,18c-0.2,0-0.4-0.1-0.5-0.2
			c-0.1-0.1-0.2-0.3-0.2-0.5c0-0.2,0.1-0.4,0.2-0.5c0.1-0.1,0.3-0.2,0.5-0.2s0.4,0.1,0.5,0.2c0.1,0.1,0.2,0.3,0.2,0.5
			c0,0.2-0.1,0.4-0.2,0.5C136.4,18,136.2,18,136,18z M140.9,25.1c-0.6,0-1.2-0.1-1.6-0.4c-0.5-0.3-0.8-0.6-1.1-1.1
			c-0.3-0.4-0.4-1-0.4-1.5c0-0.6,0.1-1.1,0.4-1.5c0.3-0.4,0.6-0.8,1-1c0.4-0.3,1-0.4,1.5-0.4c0.6,0,1.1,0.1,1.5,0.4
			c0.4,0.2,0.8,0.6,1,1.1c0.2,0.4,0.4,1,0.4,1.6c0,0,0,0.1,0,0.2c0,0.1,0,0.1,0,0.2h-5v-0.8h4.4l-0.4,0.3c0-0.4-0.1-0.7-0.2-1
			c-0.2-0.3-0.4-0.5-0.7-0.7c-0.3-0.2-0.6-0.3-1-0.3c-0.4,0-0.7,0.1-1,0.3c-0.3,0.2-0.5,0.4-0.7,0.7c-0.2,0.3-0.2,0.6-0.2,1v0.2
			c0,0.4,0.1,0.7,0.3,1c0.2,0.3,0.4,0.5,0.8,0.7c0.3,0.2,0.7,0.3,1.1,0.3c0.3,0,0.7-0.1,0.9-0.2c0.3-0.1,0.5-0.3,0.7-0.5l0.6,0.7
			c-0.3,0.3-0.6,0.5-1,0.7C141.8,25,141.4,25.1,140.9,25.1z M148,19.1c0.5,0,0.9,0.1,1.3,0.3c0.4,0.2,0.7,0.5,0.9,0.8
			c0.2,0.4,0.3,0.8,0.3,1.4V25h-1.1v-3.2c0-0.6-0.1-1-0.4-1.3c-0.3-0.3-0.7-0.4-1.2-0.4c-0.4,0-0.7,0.1-1,0.2
			c-0.3,0.1-0.5,0.4-0.6,0.6c-0.1,0.3-0.2,0.6-0.2,1.1v3h-1.1v-5.8h1v1.6l-0.2-0.4c0.2-0.4,0.5-0.7,0.9-0.9S147.4,19.1,148,19.1z
			 M154.5,25.1c-0.6,0-1.1-0.1-1.5-0.4c-0.4-0.2-0.8-0.6-1-1s-0.4-1-0.4-1.6c0-0.6,0.1-1.1,0.4-1.6c0.3-0.4,0.6-0.8,1-1
			c0.4-0.2,1-0.4,1.5-0.4c0.5,0,0.9,0.1,1.3,0.3c0.4,0.2,0.7,0.6,0.9,1c0.2,0.4,0.4,1,0.4,1.6c0,0.7-0.1,1.2-0.4,1.7
			c-0.2,0.4-0.5,0.8-0.9,1C155.5,25,155,25.1,154.5,25.1z M154.6,24.1c0.4,0,0.7-0.1,1-0.3c0.3-0.2,0.5-0.4,0.7-0.7
			c0.2-0.3,0.3-0.7,0.3-1.1c0-0.4-0.1-0.8-0.3-1.1c-0.2-0.3-0.4-0.5-0.7-0.7c-0.3-0.2-0.6-0.3-1-0.3c-0.4,0-0.7,0.1-1,0.3
			s-0.5,0.4-0.7,0.7c-0.2,0.3-0.3,0.7-0.3,1.1c0,0.4,0.1,0.8,0.3,1.1c0.2,0.3,0.4,0.5,0.7,0.7S154.2,24.1,154.6,24.1z M156.6,25
			v-1.6l0.1-1.4l-0.1-1.4v-3.9h1.1V25H156.6z M163,25v-1.2l-0.1-0.2v-2.1c0-0.4-0.1-0.8-0.4-1c-0.3-0.2-0.6-0.4-1.2-0.4
			c-0.3,0-0.7,0.1-1,0.2c-0.3,0.1-0.6,0.3-0.8,0.5l-0.4-0.8c0.3-0.2,0.7-0.4,1.1-0.6c0.4-0.1,0.9-0.2,1.3-0.2c0.8,0,1.4,0.2,1.8,0.6
			s0.6,1,0.6,1.8V25H163z M161.1,25.1c-0.4,0-0.8-0.1-1.1-0.2c-0.3-0.1-0.6-0.3-0.7-0.6c-0.2-0.3-0.3-0.6-0.3-0.9
			c0-0.3,0.1-0.6,0.2-0.9c0.2-0.3,0.4-0.5,0.7-0.6c0.3-0.2,0.8-0.2,1.4-0.2h1.8v0.8h-1.8c-0.5,0-0.9,0.1-1.1,0.3
			c-0.2,0.2-0.3,0.4-0.3,0.6c0,0.3,0.1,0.5,0.3,0.7c0.2,0.2,0.5,0.3,0.9,0.3c0.4,0,0.7-0.1,1-0.3c0.3-0.2,0.5-0.4,0.6-0.8l0.2,0.7
			c-0.1,0.3-0.4,0.6-0.7,0.8C162.1,25,161.6,25.1,161.1,25.1z"/>
		<path class="st7" d="M171,27.2c-0.5,0-1.1-0.1-1.6-0.2c-0.5-0.1-0.9-0.4-1.2-0.6l0.5-0.8c0.3,0.2,0.6,0.4,1,0.5
			c0.4,0.1,0.8,0.2,1.2,0.2c0.7,0,1.2-0.2,1.5-0.5c0.3-0.3,0.5-0.8,0.5-1.5v-1.2l0.1-1.2l-0.1-1.2v-1.6h1v5c0,1-0.3,1.8-0.8,2.3
			C172.8,27,172,27.2,171,27.2z M170.9,24.8c-0.6,0-1.1-0.1-1.5-0.4c-0.4-0.2-0.8-0.6-1.1-1c-0.3-0.4-0.4-0.9-0.4-1.5
			c0-0.6,0.1-1.1,0.4-1.5c0.3-0.4,0.6-0.8,1.1-1c0.4-0.2,1-0.4,1.5-0.4c0.5,0,1,0.1,1.4,0.3c0.4,0.2,0.7,0.5,1,0.9
			c0.2,0.4,0.4,0.9,0.4,1.6c0,0.6-0.1,1.2-0.4,1.6c-0.2,0.4-0.6,0.7-1,0.9C171.8,24.7,171.4,24.8,170.9,24.8z M171,23.8
			c0.4,0,0.7-0.1,1-0.2c0.3-0.2,0.5-0.4,0.7-0.7c0.2-0.3,0.3-0.6,0.3-1s-0.1-0.7-0.3-1c-0.2-0.3-0.4-0.5-0.7-0.7
			c-0.3-0.2-0.6-0.2-1-0.2c-0.4,0-0.7,0.1-1,0.2c-0.3,0.2-0.5,0.4-0.7,0.7c-0.2,0.3-0.3,0.6-0.3,1s0.1,0.7,0.3,1
			c0.2,0.3,0.4,0.5,0.7,0.7C170.3,23.8,170.6,23.8,171,23.8z M175.9,25v-5.8h1v1.6l-0.1-0.4c0.2-0.4,0.4-0.7,0.8-0.9
			s0.9-0.3,1.4-0.3v1c0,0-0.1,0-0.1,0c0,0-0.1,0-0.1,0c-0.6,0-1,0.2-1.3,0.5c-0.3,0.3-0.5,0.8-0.5,1.5V25H175.9z M183.3,25v-1.2
			l-0.1-0.2v-2.1c0-0.4-0.1-0.8-0.4-1c-0.3-0.2-0.6-0.4-1.2-0.4c-0.3,0-0.7,0.1-1,0.2c-0.3,0.1-0.6,0.3-0.8,0.5l-0.4-0.8
			c0.3-0.2,0.7-0.4,1.1-0.6c0.4-0.1,0.9-0.2,1.3-0.2c0.8,0,1.4,0.2,1.8,0.6s0.6,1,0.6,1.8V25H183.3z M181.3,25.1
			c-0.4,0-0.8-0.1-1.1-0.2c-0.3-0.1-0.6-0.3-0.7-0.6c-0.2-0.3-0.3-0.6-0.3-0.9c0-0.3,0.1-0.6,0.2-0.9c0.2-0.3,0.4-0.5,0.7-0.6
			c0.3-0.2,0.8-0.2,1.4-0.2h1.8v0.8h-1.8c-0.5,0-0.9,0.1-1.1,0.3c-0.2,0.2-0.3,0.4-0.3,0.6c0,0.3,0.1,0.5,0.3,0.7
			c0.2,0.2,0.5,0.3,0.9,0.3c0.4,0,0.7-0.1,1-0.3c0.3-0.2,0.5-0.4,0.6-0.8l0.2,0.7c-0.1,0.3-0.4,0.6-0.7,0.8
			C182.3,25,181.9,25.1,181.3,25.1z M188,25.1c-0.6,0-1-0.2-1.4-0.5s-0.5-0.8-0.5-1.4v-5.3h1.1v5.3c0,0.3,0.1,0.6,0.2,0.7
			c0.2,0.2,0.4,0.3,0.7,0.3c0.3,0,0.6-0.1,0.8-0.3l0.3,0.8c-0.2,0.1-0.4,0.2-0.6,0.3C188.5,25,188.2,25.1,188,25.1z M185.2,20v-0.9
			h3.7V20H185.2z M190.3,25v-5.8h1.1V25H190.3z M190.9,18c-0.2,0-0.4-0.1-0.5-0.2c-0.1-0.1-0.2-0.3-0.2-0.5c0-0.2,0.1-0.4,0.2-0.5
			c0.1-0.1,0.3-0.2,0.5-0.2c0.2,0,0.4,0.1,0.5,0.2c0.1,0.1,0.2,0.3,0.2,0.5c0,0.2-0.1,0.4-0.2,0.5C191.2,18,191.1,18,190.9,18z
			 M194.9,25.1c-0.5,0-0.9-0.1-1.4-0.2c-0.4-0.1-0.8-0.3-1-0.5l0.4-0.8c0.2,0.2,0.6,0.3,0.9,0.4c0.4,0.1,0.7,0.2,1.1,0.2
			c0.5,0,0.8-0.1,1.1-0.2c0.2-0.1,0.3-0.3,0.3-0.6c0-0.2-0.1-0.3-0.2-0.4c-0.1-0.1-0.3-0.2-0.5-0.2c-0.2-0.1-0.5-0.1-0.7-0.1
			c-0.3,0-0.5-0.1-0.8-0.2c-0.3-0.1-0.5-0.2-0.7-0.3c-0.2-0.1-0.4-0.3-0.5-0.5c-0.1-0.2-0.2-0.5-0.2-0.8c0-0.4,0.1-0.7,0.3-0.9
			s0.5-0.5,0.8-0.6c0.4-0.1,0.8-0.2,1.3-0.2c0.4,0,0.8,0,1.2,0.1c0.4,0.1,0.7,0.2,1,0.4l-0.5,0.8c-0.3-0.2-0.5-0.3-0.8-0.4
			c-0.3-0.1-0.6-0.1-0.9-0.1c-0.5,0-0.8,0.1-1,0.2c-0.2,0.1-0.3,0.3-0.3,0.6c0,0.2,0.1,0.4,0.2,0.5c0.1,0.1,0.3,0.2,0.5,0.2
			c0.2,0.1,0.5,0.1,0.7,0.2c0.3,0,0.5,0.1,0.8,0.2c0.3,0.1,0.5,0.1,0.7,0.3c0.2,0.1,0.4,0.3,0.5,0.5c0.1,0.2,0.2,0.5,0.2,0.8
			c0,0.4-0.1,0.7-0.3,0.9c-0.2,0.3-0.5,0.5-0.9,0.6C195.8,25,195.4,25.1,194.9,25.1z"/>
	</g>
</g>
<g id="DEVOLUCION" class="st1">
	<g class="st2">
		<rect x="14.8" y="4" class="st0" width="34" height="34"/>
		<path class="st8" d="M23.4,16.6l6.7-3.7l6.7,3.7l-6.7,3.7 M23.4,16.6l6.7,3.7 M23.4,16.6v8.8l6.7,3.7 M30.1,20.3v8.8 M30.1,29.1
			l2.7-1.3 M38.6,25.4h-4 M37.2,23h-4 M40.2,20.3h-4"/>
	</g>
	<g class="st2">
		<path d="M61.1,25v-7.7h3.2c0.8,0,1.5,0.2,2.2,0.5c0.6,0.3,1.1,0.8,1.5,1.4c0.4,0.6,0.5,1.3,0.5,2c0,0.8-0.2,1.4-0.5,2
			c-0.3,0.6-0.8,1-1.5,1.4c-0.6,0.3-1.3,0.5-2.2,0.5H61.1z M62.2,24h2.1c0.6,0,1.2-0.1,1.7-0.4c0.5-0.2,0.8-0.6,1.1-1
			c0.3-0.4,0.4-0.9,0.4-1.5c0-0.6-0.1-1.1-0.4-1.5s-0.6-0.8-1.1-1c-0.5-0.2-1-0.4-1.7-0.4h-2.1V24z M72.4,25.1
			c-0.6,0-1.2-0.1-1.6-0.4c-0.5-0.3-0.8-0.6-1.1-1.1c-0.3-0.4-0.4-1-0.4-1.5c0-0.6,0.1-1.1,0.4-1.5c0.3-0.4,0.6-0.8,1-1
			c0.4-0.3,0.9-0.4,1.5-0.4c0.6,0,1.1,0.1,1.5,0.4s0.8,0.6,1,1.1c0.2,0.4,0.4,1,0.4,1.6c0,0,0,0.1,0,0.2c0,0.1,0,0.1,0,0.2h-5v-0.8
			h4.4l-0.4,0.3c0-0.4-0.1-0.7-0.2-1s-0.4-0.5-0.7-0.7c-0.3-0.2-0.6-0.3-1-0.3c-0.4,0-0.7,0.1-1,0.3c-0.3,0.2-0.5,0.4-0.7,0.7
			c-0.2,0.3-0.2,0.6-0.2,1v0.2c0,0.4,0.1,0.7,0.3,1c0.2,0.3,0.4,0.5,0.8,0.7s0.7,0.3,1.1,0.3c0.3,0,0.7-0.1,0.9-0.2
			c0.3-0.1,0.5-0.3,0.7-0.5l0.6,0.7c-0.3,0.3-0.6,0.5-1,0.7C73.3,25,72.9,25.1,72.4,25.1z M77.8,25l-2.6-5.8h1.1l2.3,5.3h-0.5
			l2.3-5.3h1L78.8,25H77.8z M84.5,25.1c-0.6,0-1.1-0.1-1.6-0.4c-0.5-0.3-0.8-0.6-1.1-1.1c-0.3-0.5-0.4-1-0.4-1.5
			c0-0.6,0.1-1.1,0.4-1.5s0.6-0.8,1.1-1c0.5-0.3,1-0.4,1.6-0.4c0.6,0,1.1,0.1,1.6,0.4c0.5,0.2,0.8,0.6,1.1,1c0.3,0.4,0.4,1,0.4,1.5
			c0,0.6-0.1,1.1-0.4,1.5c-0.3,0.4-0.6,0.8-1.1,1.1C85.6,24.9,85.1,25.1,84.5,25.1z M84.5,24.1c0.4,0,0.7-0.1,1-0.3
			c0.3-0.2,0.5-0.4,0.7-0.7c0.2-0.3,0.3-0.7,0.3-1.1c0-0.4-0.1-0.8-0.3-1.1c-0.2-0.3-0.4-0.5-0.7-0.7c-0.3-0.2-0.6-0.3-1-0.3
			s-0.7,0.1-1,0.3c-0.3,0.2-0.5,0.4-0.7,0.7c-0.2,0.3-0.3,0.7-0.3,1.1c0,0.4,0.1,0.8,0.3,1.1c0.2,0.3,0.4,0.5,0.7,0.7
			C83.8,24.1,84.1,24.1,84.5,24.1z M88.8,25v-8.2h1.1V25H88.8z M94.1,25.1c-0.5,0-0.9-0.1-1.3-0.3c-0.4-0.2-0.7-0.5-0.9-0.8
			c-0.2-0.4-0.3-0.9-0.3-1.4v-3.4h1.1v3.2c0,0.6,0.1,1,0.4,1.3c0.3,0.3,0.7,0.4,1.2,0.4c0.4,0,0.7-0.1,1-0.2
			c0.3-0.2,0.5-0.4,0.6-0.7c0.1-0.3,0.2-0.6,0.2-1.1v-3h1.1V25h-1v-1.6l0.2,0.4c-0.2,0.4-0.5,0.7-0.9,0.9C95,25,94.5,25.1,94.1,25.1
			z M101.4,25.1c-0.6,0-1.1-0.1-1.6-0.4c-0.5-0.3-0.8-0.6-1.1-1.1s-0.4-1-0.4-1.5c0-0.6,0.1-1.1,0.4-1.5s0.6-0.8,1.1-1
			c0.5-0.3,1-0.4,1.6-0.4c0.5,0,1,0.1,1.4,0.3c0.4,0.2,0.7,0.5,1,0.9l-0.8,0.5c-0.2-0.3-0.4-0.5-0.7-0.6c-0.3-0.1-0.6-0.2-0.9-0.2
			c-0.4,0-0.7,0.1-1,0.3c-0.3,0.2-0.5,0.4-0.7,0.7c-0.2,0.3-0.3,0.7-0.3,1.1c0,0.4,0.1,0.8,0.3,1.1c0.2,0.3,0.4,0.5,0.7,0.7
			c0.3,0.2,0.6,0.3,1,0.3c0.3,0,0.6-0.1,0.9-0.2c0.3-0.1,0.5-0.4,0.7-0.6l0.8,0.5c-0.2,0.4-0.5,0.7-1,0.9
			C102.4,25,101.9,25.1,101.4,25.1z M104.8,25v-5.8h1.1V25H104.8z M105.4,18c-0.2,0-0.4-0.1-0.5-0.2c-0.1-0.1-0.2-0.3-0.2-0.5
			c0-0.2,0.1-0.4,0.2-0.5c0.1-0.1,0.3-0.2,0.5-0.2c0.2,0,0.4,0.1,0.5,0.2c0.1,0.1,0.2,0.3,0.2,0.5c0,0.2-0.1,0.4-0.2,0.5
			C105.7,18,105.6,18,105.4,18z M110.2,25.1c-0.6,0-1.1-0.1-1.6-0.4c-0.5-0.3-0.8-0.6-1.1-1.1c-0.3-0.5-0.4-1-0.4-1.5
			c0-0.6,0.1-1.1,0.4-1.5s0.6-0.8,1.1-1c0.5-0.3,1-0.4,1.6-0.4c0.6,0,1.1,0.1,1.6,0.4c0.5,0.2,0.8,0.6,1.1,1c0.3,0.4,0.4,1,0.4,1.5
			c0,0.6-0.1,1.1-0.4,1.5c-0.3,0.4-0.6,0.8-1.1,1.1C111.3,24.9,110.8,25.1,110.2,25.1z M110.2,24.1c0.4,0,0.7-0.1,1-0.3
			c0.3-0.2,0.5-0.4,0.7-0.7c0.2-0.3,0.3-0.7,0.3-1.1c0-0.4-0.1-0.8-0.3-1.1c-0.2-0.3-0.4-0.5-0.7-0.7c-0.3-0.2-0.6-0.3-1-0.3
			s-0.7,0.1-1,0.3c-0.3,0.2-0.5,0.4-0.7,0.7c-0.2,0.3-0.3,0.7-0.3,1.1c0,0.4,0.1,0.8,0.3,1.1c0.2,0.3,0.4,0.5,0.7,0.7
			C109.5,24.1,109.8,24.1,110.2,24.1z M109.3,18.3l1.5-1.4h1.3l-1.8,1.4H109.3z M117.6,19.1c0.5,0,0.9,0.1,1.3,0.3
			c0.4,0.2,0.7,0.5,0.9,0.8c0.2,0.4,0.3,0.8,0.3,1.4V25h-1.1v-3.2c0-0.6-0.1-1-0.4-1.3c-0.3-0.3-0.7-0.4-1.2-0.4
			c-0.4,0-0.7,0.1-1,0.2c-0.3,0.1-0.5,0.4-0.6,0.6c-0.1,0.3-0.2,0.6-0.2,1.1v3h-1.1v-5.8h1v1.6l-0.2-0.4c0.2-0.4,0.5-0.7,0.9-0.9
			C116.6,19.2,117,19.1,117.6,19.1z M159.8,25.1c-0.6,0-1.2-0.1-1.6-0.4c-0.5-0.3-0.8-0.6-1.1-1.1c-0.3-0.4-0.4-1-0.4-1.5
			c0-0.6,0.1-1.1,0.4-1.5c0.3-0.4,0.6-0.8,1-1c0.4-0.3,1-0.4,1.5-0.4c0.6,0,1.1,0.1,1.5,0.4s0.8,0.6,1,1.1c0.2,0.4,0.4,1,0.4,1.6
			c0,0,0,0.1,0,0.2c0,0.1,0,0.1,0,0.2h-5v-0.8h4.4l-0.4,0.3c0-0.4-0.1-0.7-0.2-1c-0.2-0.3-0.4-0.5-0.7-0.7c-0.3-0.2-0.6-0.3-1-0.3
			c-0.4,0-0.7,0.1-1,0.3c-0.3,0.2-0.5,0.4-0.7,0.7c-0.2,0.3-0.2,0.6-0.2,1v0.2c0,0.4,0.1,0.7,0.3,1c0.2,0.3,0.4,0.5,0.8,0.7
			s0.7,0.3,1.1,0.3c0.3,0,0.7-0.1,0.9-0.2c0.3-0.1,0.5-0.3,0.7-0.5l0.6,0.7c-0.3,0.3-0.6,0.5-1,0.7C160.7,25,160.3,25.1,159.8,25.1z
			 M166.8,19.1c0.5,0,0.9,0.1,1.3,0.3c0.4,0.2,0.7,0.5,0.9,0.8c0.2,0.4,0.3,0.8,0.3,1.4V25h-1.1v-3.2c0-0.6-0.1-1-0.4-1.3
			c-0.3-0.3-0.7-0.4-1.2-0.4c-0.4,0-0.7,0.1-1,0.2c-0.3,0.1-0.5,0.4-0.6,0.6c-0.1,0.3-0.2,0.6-0.2,1.1v3h-1.1v-5.8h1v1.6l-0.2-0.4
			c0.2-0.4,0.5-0.7,0.9-0.9C165.8,19.2,166.3,19.1,166.8,19.1z M175.7,25.1c-0.6,0-1-0.2-1.4-0.5c-0.3-0.3-0.5-0.8-0.5-1.4v-5.3h1.1
			v5.3c0,0.3,0.1,0.6,0.2,0.7c0.2,0.2,0.4,0.3,0.7,0.3c0.3,0,0.6-0.1,0.8-0.3l0.3,0.8c-0.2,0.1-0.4,0.2-0.6,0.3
			C176.2,25,175.9,25.1,175.7,25.1z M172.9,20v-0.9h3.7V20H172.9z M178,25v-5.8h1.1V25H178z M178.6,18c-0.2,0-0.4-0.1-0.5-0.2
			c-0.1-0.1-0.2-0.3-0.2-0.5c0-0.2,0.1-0.4,0.2-0.5c0.1-0.1,0.3-0.2,0.5-0.2c0.2,0,0.4,0.1,0.5,0.2c0.1,0.1,0.2,0.3,0.2,0.5
			c0,0.2-0.1,0.4-0.2,0.5C178.9,18,178.8,18,178.6,18z M183.5,25.1c-0.6,0-1.2-0.1-1.6-0.4c-0.5-0.3-0.8-0.6-1.1-1.1
			c-0.3-0.4-0.4-1-0.4-1.5c0-0.6,0.1-1.1,0.4-1.5c0.3-0.4,0.6-0.8,1-1c0.4-0.3,0.9-0.4,1.5-0.4c0.6,0,1.1,0.1,1.5,0.4
			c0.4,0.2,0.8,0.6,1,1.1c0.2,0.4,0.4,1,0.4,1.6c0,0,0,0.1,0,0.2c0,0.1,0,0.1,0,0.2h-5v-0.8h4.4l-0.4,0.3c0-0.4-0.1-0.7-0.2-1
			c-0.2-0.3-0.4-0.5-0.7-0.7c-0.3-0.2-0.6-0.3-1-0.3c-0.4,0-0.7,0.1-1,0.3c-0.3,0.2-0.5,0.4-0.7,0.7c-0.2,0.3-0.2,0.6-0.2,1v0.2
			c0,0.4,0.1,0.7,0.3,1c0.2,0.3,0.4,0.5,0.8,0.7c0.3,0.2,0.7,0.3,1.1,0.3c0.3,0,0.7-0.1,0.9-0.2c0.3-0.1,0.5-0.3,0.7-0.5l0.6,0.7
			c-0.3,0.3-0.6,0.5-1,0.7C184.4,25,184,25.1,183.5,25.1z M190.5,19.1c0.5,0,0.9,0.1,1.3,0.3c0.4,0.2,0.7,0.5,0.9,0.8
			c0.2,0.4,0.3,0.8,0.3,1.4V25h-1.1v-3.2c0-0.6-0.1-1-0.4-1.3c-0.3-0.3-0.7-0.4-1.2-0.4c-0.4,0-0.7,0.1-1,0.2
			c-0.3,0.1-0.5,0.4-0.6,0.6c-0.1,0.3-0.2,0.6-0.2,1.1v3h-1.1v-5.8h1v1.6l-0.2-0.4c0.2-0.4,0.5-0.7,0.9-0.9
			C189.5,19.2,190,19.1,190.5,19.1z M197.1,25.1c-0.6,0-1.1-0.1-1.5-0.4c-0.4-0.2-0.8-0.6-1-1c-0.3-0.4-0.4-1-0.4-1.6
			c0-0.6,0.1-1.1,0.4-1.6c0.3-0.4,0.6-0.8,1-1c0.4-0.2,1-0.4,1.5-0.4c0.5,0,0.9,0.1,1.3,0.3c0.4,0.2,0.7,0.6,0.9,1
			c0.2,0.4,0.4,1,0.4,1.6c0,0.7-0.1,1.2-0.4,1.7c-0.2,0.4-0.5,0.8-0.9,1C198,25,197.6,25.1,197.1,25.1z M197.2,24.1
			c0.4,0,0.7-0.1,1-0.3c0.3-0.2,0.5-0.4,0.7-0.7c0.2-0.3,0.3-0.7,0.3-1.1c0-0.4-0.1-0.8-0.3-1.1c-0.2-0.3-0.4-0.5-0.7-0.7
			c-0.3-0.2-0.6-0.3-1-0.3c-0.4,0-0.7,0.1-1,0.3c-0.3,0.2-0.5,0.4-0.7,0.7c-0.2,0.3-0.3,0.7-0.3,1.1c0,0.4,0.1,0.8,0.3,1.1
			c0.2,0.3,0.4,0.5,0.7,0.7C196.5,24.1,196.8,24.1,197.2,24.1z M199.1,25v-1.6l0.1-1.4l-0.1-1.4v-3.9h1.1V25H199.1z M205.6,25v-1.2
			l-0.1-0.2v-2.1c0-0.4-0.1-0.8-0.4-1c-0.3-0.2-0.6-0.4-1.2-0.4c-0.3,0-0.7,0.1-1,0.2c-0.3,0.1-0.6,0.3-0.8,0.5l-0.4-0.8
			c0.3-0.2,0.7-0.4,1.1-0.6c0.4-0.1,0.9-0.2,1.3-0.2c0.8,0,1.4,0.2,1.8,0.6c0.4,0.4,0.6,1,0.6,1.8V25H205.6z M203.6,25.1
			c-0.4,0-0.8-0.1-1.1-0.2c-0.3-0.1-0.6-0.3-0.7-0.6c-0.2-0.3-0.3-0.6-0.3-0.9c0-0.3,0.1-0.6,0.2-0.9c0.2-0.3,0.4-0.5,0.7-0.6
			c0.3-0.2,0.8-0.2,1.4-0.2h1.8v0.8h-1.8c-0.5,0-0.9,0.1-1.1,0.3c-0.2,0.2-0.3,0.4-0.3,0.6c0,0.3,0.1,0.5,0.3,0.7
			c0.2,0.2,0.5,0.3,0.9,0.3c0.4,0,0.7-0.1,1-0.3c0.3-0.2,0.5-0.4,0.6-0.8l0.2,0.7c-0.1,0.3-0.4,0.6-0.7,0.8
			C204.6,25,204.2,25.1,203.6,25.1z"/>
		<path class="st7" d="M127,27.2c-0.5,0-1.1-0.1-1.6-0.2c-0.5-0.1-0.9-0.4-1.2-0.6l0.5-0.8c0.3,0.2,0.6,0.4,1,0.5
			c0.4,0.1,0.8,0.2,1.2,0.2c0.7,0,1.2-0.2,1.5-0.5c0.3-0.3,0.5-0.8,0.5-1.5v-1.2l0.1-1.2l-0.1-1.2v-1.6h1v5c0,1-0.3,1.8-0.8,2.3
			C128.7,27,128,27.2,127,27.2z M126.9,24.8c-0.6,0-1.1-0.1-1.5-0.4c-0.4-0.2-0.8-0.6-1.1-1c-0.3-0.4-0.4-0.9-0.4-1.5
			c0-0.6,0.1-1.1,0.4-1.5c0.3-0.4,0.6-0.8,1.1-1c0.4-0.2,1-0.4,1.5-0.4c0.5,0,1,0.1,1.4,0.3c0.4,0.2,0.7,0.5,1,0.9
			c0.2,0.4,0.4,0.9,0.4,1.6c0,0.6-0.1,1.2-0.4,1.6c-0.2,0.4-0.6,0.7-1,0.9C127.8,24.7,127.4,24.8,126.9,24.8z M127,23.8
			c0.4,0,0.7-0.1,1-0.2c0.3-0.2,0.5-0.4,0.7-0.7c0.2-0.3,0.3-0.6,0.3-1s-0.1-0.7-0.3-1c-0.2-0.3-0.4-0.5-0.7-0.7
			c-0.3-0.2-0.6-0.2-1-0.2c-0.4,0-0.7,0.1-1,0.2c-0.3,0.2-0.5,0.4-0.7,0.7c-0.2,0.3-0.3,0.6-0.3,1s0.1,0.7,0.3,1
			c0.2,0.3,0.4,0.5,0.7,0.7C126.3,23.8,126.6,23.8,127,23.8z M131.8,25v-5.8h1v1.6l-0.1-0.4c0.2-0.4,0.4-0.7,0.8-0.9
			s0.9-0.3,1.4-0.3v1c0,0-0.1,0-0.1,0c0,0-0.1,0-0.1,0c-0.6,0-1,0.2-1.3,0.5c-0.3,0.3-0.5,0.8-0.5,1.5V25H131.8z M139.2,25v-1.2
			l-0.1-0.2v-2.1c0-0.4-0.1-0.8-0.4-1c-0.3-0.2-0.6-0.4-1.2-0.4c-0.3,0-0.7,0.1-1,0.2c-0.3,0.1-0.6,0.3-0.8,0.5l-0.4-0.8
			c0.3-0.2,0.7-0.4,1.1-0.6c0.4-0.1,0.9-0.2,1.3-0.2c0.8,0,1.4,0.2,1.8,0.6s0.6,1,0.6,1.8V25H139.2z M137.3,25.1
			c-0.4,0-0.8-0.1-1.1-0.2c-0.3-0.1-0.6-0.3-0.7-0.6c-0.2-0.3-0.3-0.6-0.3-0.9c0-0.3,0.1-0.6,0.2-0.9c0.2-0.3,0.4-0.5,0.7-0.6
			c0.3-0.2,0.8-0.2,1.4-0.2h1.8v0.8h-1.8c-0.5,0-0.9,0.1-1.1,0.3c-0.2,0.2-0.3,0.4-0.3,0.6c0,0.3,0.1,0.5,0.3,0.7
			c0.2,0.2,0.5,0.3,0.9,0.3c0.4,0,0.7-0.1,1-0.3c0.3-0.2,0.5-0.4,0.6-0.8l0.2,0.7c-0.1,0.3-0.4,0.6-0.7,0.8
			C138.3,25,137.8,25.1,137.3,25.1z M144,25.1c-0.6,0-1-0.2-1.4-0.5s-0.5-0.8-0.5-1.4v-5.3h1.1v5.3c0,0.3,0.1,0.6,0.2,0.7
			c0.2,0.2,0.4,0.3,0.7,0.3c0.3,0,0.6-0.1,0.8-0.3l0.3,0.8c-0.2,0.1-0.4,0.2-0.6,0.3C144.4,25,144.2,25.1,144,25.1z M141.1,20v-0.9
			h3.7V20H141.1z M146.3,25v-5.8h1.1V25H146.3z M146.8,18c-0.2,0-0.4-0.1-0.5-0.2c-0.1-0.1-0.2-0.3-0.2-0.5c0-0.2,0.1-0.4,0.2-0.5
			c0.1-0.1,0.3-0.2,0.5-0.2c0.2,0,0.4,0.1,0.5,0.2c0.1,0.1,0.2,0.3,0.2,0.5c0,0.2-0.1,0.4-0.2,0.5C147.2,18,147,18,146.8,18z
			 M150.8,25.1c-0.5,0-0.9-0.1-1.4-0.2c-0.4-0.1-0.8-0.3-1-0.5l0.4-0.8c0.2,0.2,0.6,0.3,0.9,0.4c0.4,0.1,0.7,0.2,1.1,0.2
			c0.5,0,0.8-0.1,1.1-0.2c0.2-0.1,0.3-0.3,0.3-0.6c0-0.2-0.1-0.3-0.2-0.4c-0.1-0.1-0.3-0.2-0.5-0.2c-0.2-0.1-0.5-0.1-0.7-0.1
			c-0.3,0-0.5-0.1-0.8-0.2c-0.3-0.1-0.5-0.2-0.7-0.3c-0.2-0.1-0.4-0.3-0.5-0.5c-0.1-0.2-0.2-0.5-0.2-0.8c0-0.4,0.1-0.7,0.3-0.9
			c0.2-0.3,0.5-0.5,0.8-0.6c0.4-0.1,0.8-0.2,1.3-0.2c0.4,0,0.8,0,1.2,0.1c0.4,0.1,0.7,0.2,1,0.4l-0.5,0.8c-0.3-0.2-0.5-0.3-0.8-0.4
			c-0.3-0.1-0.6-0.1-0.9-0.1c-0.5,0-0.8,0.1-1,0.2c-0.2,0.1-0.3,0.3-0.3,0.6c0,0.2,0.1,0.4,0.2,0.5c0.1,0.1,0.3,0.2,0.5,0.2
			c0.2,0.1,0.5,0.1,0.7,0.2c0.3,0,0.5,0.1,0.8,0.2c0.3,0.1,0.5,0.1,0.7,0.3c0.2,0.1,0.4,0.3,0.5,0.5c0.1,0.2,0.2,0.5,0.2,0.8
			c0,0.4-0.1,0.7-0.3,0.9c-0.2,0.3-0.5,0.5-0.9,0.6C151.8,25,151.3,25.1,150.8,25.1z"/>
	</g>
</g>
<g id="ENVIO">
	<g>
		<rect x="10.2" y="1" class="st0" width="40" height="40"/>
		<path class="st9" d="M20.2,26.4H22"/>
		<path class="st9" d="M20.2,19.1h6"/>
		<path class="st9" d="M23,16.3h6"/>
		<path class="st9" d="M24.1,28.6c1.2,0,2.1-1,2.1-2.1s-1-2.1-2.1-2.1c-1.2,0-2.1,1-2.1,2.1S23,28.6,24.1,28.6z"/>
		<path class="st9" d="M36.5,28.6c1.2,0,2.1-1,2.1-2.1c0-1.2-1-2.1-2.1-2.1c-1.2,0-2.1,1-2.1,2.1C34.4,27.6,35.3,28.6,36.5,28.6z"/>
		<path class="st9" d="M26.4,26.5h6.4v-13h-6.5"/>
		<path class="st9" d="M33,26.4h1.5"/>
		<path class="st9" d="M33,17h3.4l2.2,2.9"/>
		<path class="st9" d="M38.6,26.4h0.8c0,0,0.9,0.1,0.9-0.8v-3.5c0-0.3,0-0.6-0.1-0.8c-0.1-0.3-0.3-0.5-0.5-0.7
			c-0.2-0.2-0.4-0.4-0.7-0.5c-0.3-0.1-0.5-0.2-0.8-0.2h-3.4V17"/>
	</g>
	<g>
		<path d="M62.3,20.6h4v0.9h-4V20.6z M62.4,24h4.5v1h-5.6v-7.7h5.4v1h-4.3V24z M71.4,19.1c0.5,0,0.9,0.1,1.3,0.3
			c0.4,0.2,0.7,0.5,0.9,0.8c0.2,0.4,0.3,0.8,0.3,1.4V25h-1.1v-3.2c0-0.6-0.1-1-0.4-1.3c-0.3-0.3-0.7-0.4-1.2-0.4
			c-0.4,0-0.7,0.1-1,0.2c-0.3,0.1-0.5,0.4-0.6,0.6c-0.1,0.3-0.2,0.6-0.2,1.1v3h-1.1v-5.8h1v1.6l-0.2-0.4c0.2-0.4,0.5-0.7,0.9-0.9
			C70.4,19.2,70.8,19.1,71.4,19.1z M76.9,25l-2.6-5.8h1.1l2.3,5.3h-0.5l2.3-5.3h1L78,25H76.9z M81.3,25v-5.8h1.1V25H81.3z M81,18.3
			l1.5-1.4h1.3L82,18.3H81z M86.7,25.1c-0.6,0-1.1-0.1-1.6-0.4c-0.5-0.3-0.8-0.6-1.1-1.1c-0.3-0.5-0.4-1-0.4-1.5
			c0-0.6,0.1-1.1,0.4-1.5s0.6-0.8,1.1-1c0.5-0.3,1-0.4,1.6-0.4c0.6,0,1.1,0.1,1.6,0.4c0.5,0.2,0.8,0.6,1.1,1c0.3,0.4,0.4,1,0.4,1.5
			c0,0.6-0.1,1.1-0.4,1.5c-0.3,0.4-0.6,0.8-1.1,1.1C87.8,24.9,87.3,25.1,86.7,25.1z M86.7,24.1c0.4,0,0.7-0.1,1-0.3
			c0.3-0.2,0.5-0.4,0.7-0.7c0.2-0.3,0.3-0.7,0.3-1.1c0-0.4-0.1-0.8-0.3-1.1c-0.2-0.3-0.4-0.5-0.7-0.7c-0.3-0.2-0.6-0.3-1-0.3
			s-0.7,0.1-1,0.3c-0.3,0.2-0.5,0.4-0.7,0.7c-0.2,0.3-0.3,0.7-0.3,1.1c0,0.4,0.1,0.8,0.3,1.1c0.2,0.3,0.4,0.5,0.7,0.7
			C86,24.1,86.3,24.1,86.7,24.1z M97.3,25v-1.2l-0.1-0.2v-2.1c0-0.4-0.1-0.8-0.4-1c-0.3-0.2-0.6-0.4-1.2-0.4c-0.3,0-0.7,0.1-1,0.2
			c-0.3,0.1-0.6,0.3-0.8,0.5l-0.4-0.8c0.3-0.2,0.7-0.4,1.1-0.6c0.4-0.1,0.9-0.2,1.3-0.2c0.8,0,1.4,0.2,1.8,0.6
			c0.4,0.4,0.6,1,0.6,1.8V25H97.3z M95.4,25.1c-0.4,0-0.8-0.1-1.1-0.2c-0.3-0.1-0.6-0.3-0.7-0.6c-0.2-0.3-0.3-0.6-0.3-0.9
			c0-0.3,0.1-0.6,0.2-0.9c0.2-0.3,0.4-0.5,0.7-0.6c0.3-0.2,0.8-0.2,1.4-0.2h1.8v0.8h-1.8c-0.5,0-0.9,0.1-1.1,0.3
			c-0.2,0.2-0.3,0.4-0.3,0.6c0,0.3,0.1,0.5,0.3,0.7c0.2,0.2,0.5,0.3,0.9,0.3c0.4,0,0.7-0.1,1-0.3c0.3-0.2,0.5-0.4,0.6-0.8l0.2,0.7
			c-0.1,0.3-0.4,0.6-0.7,0.8C96.4,25,95.9,25.1,95.4,25.1z M105.2,25.1c-0.6,0-1.1-0.1-1.5-0.4c-0.4-0.2-0.8-0.6-1-1
			c-0.3-0.4-0.4-1-0.4-1.6c0-0.6,0.1-1.1,0.4-1.6c0.3-0.4,0.6-0.8,1-1c0.4-0.2,1-0.4,1.5-0.4c0.5,0,0.9,0.1,1.3,0.3
			c0.4,0.2,0.7,0.6,0.9,1c0.2,0.4,0.4,1,0.4,1.6c0,0.7-0.1,1.2-0.4,1.7c-0.2,0.4-0.5,0.8-0.9,1C106.1,25,105.7,25.1,105.2,25.1z
			 M105.3,24.1c0.4,0,0.7-0.1,1-0.3c0.3-0.2,0.5-0.4,0.7-0.7c0.2-0.3,0.3-0.7,0.3-1.1c0-0.4-0.1-0.8-0.3-1.1
			c-0.2-0.3-0.4-0.5-0.7-0.7c-0.3-0.2-0.6-0.3-1-0.3c-0.4,0-0.7,0.1-1,0.3c-0.3,0.2-0.5,0.4-0.7,0.7c-0.2,0.3-0.3,0.7-0.3,1.1
			c0,0.4,0.1,0.8,0.3,1.1c0.2,0.3,0.4,0.5,0.7,0.7C104.6,24.1,104.9,24.1,105.3,24.1z M107.3,25v-1.6l0.1-1.4l-0.1-1.4v-3.9h1.1V25
			H107.3z M112.5,25.1c-0.6,0-1.1-0.1-1.6-0.4c-0.5-0.3-0.8-0.6-1.1-1.1c-0.3-0.5-0.4-1-0.4-1.5c0-0.6,0.1-1.1,0.4-1.5
			c0.3-0.4,0.6-0.8,1.1-1c0.5-0.3,1-0.4,1.6-0.4c0.6,0,1.1,0.1,1.6,0.4c0.5,0.2,0.8,0.6,1.1,1c0.3,0.4,0.4,1,0.4,1.5
			c0,0.6-0.1,1.1-0.4,1.5c-0.3,0.4-0.6,0.8-1.1,1.1C113.6,24.9,113.1,25.1,112.5,25.1z M112.5,24.1c0.4,0,0.7-0.1,1-0.3
			c0.3-0.2,0.5-0.4,0.7-0.7c0.2-0.3,0.3-0.7,0.3-1.1c0-0.4-0.1-0.8-0.3-1.1c-0.2-0.3-0.4-0.5-0.7-0.7c-0.3-0.2-0.6-0.3-1-0.3
			c-0.4,0-0.7,0.1-1,0.3c-0.3,0.2-0.5,0.4-0.7,0.7c-0.2,0.3-0.3,0.7-0.3,1.1c0,0.4,0.1,0.8,0.3,1.1c0.2,0.3,0.4,0.5,0.7,0.7
			C111.8,24.1,112.2,24.1,112.5,24.1z M124.1,19.1c0.5,0,0.9,0.1,1.2,0.3s0.6,0.5,0.8,0.8c0.2,0.4,0.3,0.8,0.3,1.4V25h-1.1v-3.2
			c0-0.6-0.1-1-0.4-1.3c-0.3-0.3-0.6-0.4-1.1-0.4c-0.4,0-0.7,0.1-0.9,0.2c-0.3,0.1-0.5,0.4-0.6,0.6c-0.1,0.3-0.2,0.6-0.2,1.1v3h-1.1
			v-3.2c0-0.6-0.1-1-0.4-1.3c-0.3-0.3-0.6-0.4-1.1-0.4c-0.3,0-0.6,0.1-0.9,0.2c-0.3,0.1-0.5,0.4-0.6,0.6c-0.1,0.3-0.2,0.6-0.2,1.1v3
			h-1.1v-5.8h1v1.6l-0.2-0.4c0.2-0.4,0.5-0.7,0.8-0.9c0.4-0.2,0.8-0.3,1.3-0.3c0.6,0,1,0.1,1.4,0.4c0.4,0.3,0.7,0.7,0.8,1.2
			l-0.4-0.2c0.2-0.4,0.5-0.8,0.9-1.1C123,19.3,123.5,19.1,124.1,19.1z M128.2,25v-5.8h1.1V25H128.2z M128.7,18
			c-0.2,0-0.4-0.1-0.5-0.2c-0.1-0.1-0.2-0.3-0.2-0.5c0-0.2,0.1-0.4,0.2-0.5c0.1-0.1,0.3-0.2,0.5-0.2c0.2,0,0.4,0.1,0.5,0.2
			c0.1,0.1,0.2,0.3,0.2,0.5c0,0.2-0.1,0.4-0.2,0.5C129.1,18,129,18,128.7,18z M133.6,25.1c-0.6,0-1.1-0.1-1.6-0.4
			c-0.5-0.3-0.8-0.6-1.1-1.1c-0.3-0.4-0.4-1-0.4-1.5c0-0.6,0.1-1.1,0.4-1.5c0.3-0.4,0.6-0.8,1.1-1c0.5-0.3,1-0.4,1.6-0.4
			c0.5,0,1,0.1,1.4,0.3c0.4,0.2,0.7,0.5,1,0.9l-0.8,0.5c-0.2-0.3-0.4-0.5-0.7-0.6c-0.3-0.1-0.6-0.2-0.9-0.2c-0.4,0-0.7,0.1-1,0.3
			c-0.3,0.2-0.5,0.4-0.7,0.7c-0.2,0.3-0.3,0.7-0.3,1.1c0,0.4,0.1,0.8,0.3,1.1c0.2,0.3,0.4,0.5,0.7,0.7c0.3,0.2,0.6,0.3,1,0.3
			c0.3,0,0.6-0.1,0.9-0.2c0.3-0.1,0.5-0.4,0.7-0.6l0.8,0.5c-0.2,0.4-0.6,0.7-1,0.9C134.6,25,134.1,25.1,133.6,25.1z M137.1,25v-5.8
			h1.1V25H137.1z M137.6,18c-0.2,0-0.4-0.1-0.5-0.2c-0.1-0.1-0.2-0.3-0.2-0.5c0-0.2,0.1-0.4,0.2-0.5c0.1-0.1,0.3-0.2,0.5-0.2
			c0.2,0,0.4,0.1,0.5,0.2c0.1,0.1,0.2,0.3,0.2,0.5c0,0.2-0.1,0.4-0.2,0.5C138,18,137.8,18,137.6,18z M139.9,25v-8.2h1.1V25H139.9z
			 M142.8,25v-5.8h1.1V25H142.8z M143.3,18c-0.2,0-0.4-0.1-0.5-0.2c-0.1-0.1-0.2-0.3-0.2-0.5c0-0.2,0.1-0.4,0.2-0.5
			c0.1-0.1,0.3-0.2,0.5-0.2s0.4,0.1,0.5,0.2c0.1,0.1,0.2,0.3,0.2,0.5c0,0.2-0.1,0.4-0.2,0.5C143.7,18,143.5,18,143.3,18z
			 M148.1,25.1c-0.6,0-1.1-0.1-1.6-0.4c-0.5-0.3-0.8-0.6-1.1-1.1c-0.3-0.5-0.4-1-0.4-1.5c0-0.6,0.1-1.1,0.4-1.5
			c0.3-0.4,0.6-0.8,1.1-1c0.5-0.3,1-0.4,1.6-0.4c0.6,0,1.1,0.1,1.6,0.4c0.5,0.2,0.8,0.6,1.1,1c0.3,0.4,0.4,1,0.4,1.5
			c0,0.6-0.1,1.1-0.4,1.5c-0.3,0.4-0.6,0.8-1.1,1.1C149.2,24.9,148.7,25.1,148.1,25.1z M148.1,24.1c0.4,0,0.7-0.1,1-0.3
			c0.3-0.2,0.5-0.4,0.7-0.7c0.2-0.3,0.3-0.7,0.3-1.1c0-0.4-0.1-0.8-0.3-1.1c-0.2-0.3-0.4-0.5-0.7-0.7c-0.3-0.2-0.6-0.3-1-0.3
			c-0.4,0-0.7,0.1-1,0.3c-0.3,0.2-0.5,0.4-0.7,0.7c-0.2,0.3-0.3,0.7-0.3,1.1c0,0.4,0.1,0.8,0.3,1.1c0.2,0.3,0.4,0.5,0.7,0.7
			C147.4,24.1,147.7,24.1,148.1,24.1z"/>
	</g>
</g>
<g id="CLICK_x26_CAR" class="st1">
	<g class="st2">
		<rect x="10.3" y="1" class="st0" width="37" height="39.9"/>
		<path class="st7" d="M19.6,22c0,0.1,0.1,0.1,0.2,0.1h0.1h6.5c0.1,0,0.2,0,0.2-0.1s0.1-0.1,0.1-0.2l-0.3-6.3c0,0,0-0.1,0-0.1
			c0,0,0-0.1-0.1-0.1c0,0-0.1-0.1-0.1-0.1c0,0-0.1,0-0.1,0h-1.3c0-0.5-0.3-0.9-0.6-1.2c-0.3-0.3-0.7-0.5-1.2-0.5
			c-0.4,0-0.8,0.2-1.2,0.5c-0.3,0.3-0.5,0.7-0.6,1.2H20c-0.1,0-0.2,0-0.2,0.1c-0.1,0.1-0.1,0.1-0.1,0.2l-0.2,6.3c0,0,0,0.1,0,0.1
			C19.5,21.9,19.6,22,19.6,22z M23,14.1c0.3,0,0.5,0.1,0.7,0.3c0.2,0.2,0.3,0.4,0.4,0.7h-2.3c0.1-0.3,0.2-0.5,0.4-0.7
			C22.5,14.2,22.7,14.1,23,14.1z M25.7,15.8l0.3,5.6h-5.9l0.2-5.6H25.7z"/>
		<path class="st7" d="M24.6,18.3l-2.8-0.8v1.7L24.6,18.3z"/>
		<path class="st7" d="M37.9,16v0.7l-0.8,0.1v3.4l0.8,0.1v0.8h-0.6c-2.7,0-5.3,0-8,0c-0.5,0-0.7,0.2-0.7,0.7c0,1.1,0,2.2,0,3.3
			c0,0.2,0,0.3,0,0.5c0,0.2,0.1,0.3,0.2,0.5c0.1,0.1,0.2,0.3,0.4,0.3c0.1,0.1,0.3,0.1,0.4,0.2c0.1,0,0.2,0,0.3,0c0.4,0,0.8,0,1.1,0
			c0.5-2,1.3-2.8,2.6-2.8c1.3,0,2.1,0.9,2.5,2.8h1.7v0.8c-0.5,0-1,0-1.5,0c-0.1,0-0.2,0.1-0.3,0.1c-0.1,0.1-0.2,0.1-0.2,0.2
			c-0.3,0.6-0.9,1.1-1.5,1.3c-0.6,0.2-1.3,0.1-1.9-0.2c-0.4-0.3-0.8-0.6-1-1.1c-0.1-0.1-0.1-0.2-0.2-0.2c-0.1-0.1-0.2-0.1-0.3-0.1
			c-0.4,0-0.7,0-1.1,0c-0.5,0-1-0.2-1.4-0.6s-0.6-0.9-0.6-1.4c0-1.3,0-2.7,0-4c0-0.1,0-0.3,0.1-0.4c0-0.1,0.1-0.3,0.2-0.4
			c0.1-0.1,0.2-0.2,0.3-0.2c0.1-0.1,0.2-0.1,0.4-0.1h3c-0.1-0.2-0.1-0.4-0.2-0.5c-0.5-1.3-1-2.6-1.4-3.8c0-0.2-0.1-0.3-0.3-0.5
			c-0.1-0.1-0.3-0.2-0.5-0.2c-0.2,0-0.3-0.3-0.5-0.4c0.2-0.1,0.3-0.3,0.5-0.3c0.3,0,0.6,0.1,0.8,0.2c0.2,0.2,0.4,0.4,0.5,0.7
			c0.5,1.3,1,2.6,1.5,3.9c0.1,0.2,0.1,0.4,0.2,0.6l2.9-3.1c0.3-0.3,0.7-0.6,1.2-0.7C37,16,37.5,15.9,37.9,16z M33.6,28.4
			c0.5,0,0.9-0.2,1.3-0.5c0.3-0.4,0.5-0.8,0.5-1.3v-0.1c0-0.4-0.1-0.7-0.3-1.1c-0.2-0.3-0.5-0.6-0.8-0.7c-0.3-0.1-0.7-0.2-1-0.1
			c-0.3,0.1-0.7,0.3-0.9,0.5c-0.2,0.3-0.4,0.6-0.5,1c-0.1,0.4,0,0.7,0.1,1.1c0.1,0.3,0.4,0.6,0.6,0.9C32.9,28.2,33.3,28.4,33.6,28.4
			z M36.2,17.3l-2.7,2.9h2.7V17.3z"/>
	</g>
	<g class="st2">
		<path d="M65.3,25.1c-0.6,0-1.1-0.1-1.6-0.3c-0.5-0.2-0.9-0.5-1.3-0.8c-0.4-0.4-0.6-0.8-0.8-1.3s-0.3-1-0.3-1.6s0.1-1.1,0.3-1.6
			s0.5-0.9,0.9-1.2c0.4-0.4,0.8-0.6,1.3-0.8c0.5-0.2,1-0.3,1.6-0.3c0.6,0,1.1,0.1,1.6,0.3c0.5,0.2,0.9,0.5,1.3,0.9l-0.7,0.7
			c-0.3-0.3-0.6-0.5-1-0.7c-0.4-0.2-0.8-0.2-1.2-0.2c-0.4,0-0.8,0.1-1.2,0.2c-0.4,0.1-0.7,0.4-1,0.6s-0.5,0.6-0.6,0.9
			c-0.1,0.4-0.2,0.8-0.2,1.2c0,0.4,0.1,0.8,0.2,1.2c0.2,0.4,0.4,0.7,0.6,0.9s0.6,0.5,1,0.6c0.4,0.1,0.8,0.2,1.2,0.2
			c0.4,0,0.8-0.1,1.2-0.2c0.4-0.2,0.7-0.4,1-0.7l0.7,0.7c-0.4,0.4-0.8,0.7-1.3,0.9C66.4,25,65.9,25.1,65.3,25.1z M69.4,25v-8.2h1.1
			V25H69.4z M72.3,25v-5.8h1.1V25H72.3z M72.8,18c-0.2,0-0.4-0.1-0.5-0.2c-0.1-0.1-0.2-0.3-0.2-0.5c0-0.2,0.1-0.4,0.2-0.5
			c0.1-0.1,0.3-0.2,0.5-0.2c0.2,0,0.4,0.1,0.5,0.2c0.1,0.1,0.2,0.3,0.2,0.5c0,0.2-0.1,0.4-0.2,0.5C73.2,18,73,18,72.8,18z
			 M77.6,25.1c-0.6,0-1.1-0.1-1.6-0.4c-0.5-0.3-0.8-0.6-1.1-1.1s-0.4-1-0.4-1.5c0-0.6,0.1-1.1,0.4-1.5s0.6-0.8,1.1-1
			c0.5-0.3,1-0.4,1.6-0.4c0.5,0,1,0.1,1.4,0.3c0.4,0.2,0.7,0.5,1,0.9l-0.8,0.5c-0.2-0.3-0.4-0.5-0.7-0.6C78.2,20.1,78,20,77.6,20
			c-0.4,0-0.7,0.1-1,0.3c-0.3,0.2-0.5,0.4-0.7,0.7c-0.2,0.3-0.3,0.7-0.3,1.1c0,0.4,0.1,0.8,0.3,1.1s0.4,0.5,0.7,0.7
			c0.3,0.2,0.6,0.3,1,0.3c0.3,0,0.6-0.1,0.9-0.2c0.3-0.1,0.5-0.4,0.7-0.6l0.8,0.5c-0.2,0.4-0.5,0.7-1,0.9
			C78.6,25,78.2,25.1,77.6,25.1z M82,23.6l0-1.4l3.4-3.1h1.3L84,21.7l-0.6,0.5L82,23.6z M81.1,25v-8.2h1.1V25H81.1z M85.6,25
			l-2.3-2.8l0.7-0.8l2.9,3.7H85.6z M92.6,25.1c-0.5,0-1-0.1-1.4-0.3c-0.4-0.2-0.7-0.4-1-0.7c-0.2-0.3-0.4-0.6-0.4-1
			c0-0.3,0.1-0.7,0.2-0.9c0.2-0.3,0.4-0.6,0.7-0.8c0.3-0.3,0.8-0.6,1.3-0.8c0.4-0.2,0.8-0.4,1-0.6c0.3-0.2,0.4-0.3,0.5-0.5
			c0.1-0.2,0.2-0.3,0.2-0.5c0-0.2-0.1-0.5-0.3-0.6c-0.2-0.2-0.4-0.2-0.8-0.2c-0.3,0-0.6,0.1-0.8,0.3c-0.2,0.2-0.3,0.4-0.3,0.7
			c0,0.1,0,0.3,0.1,0.4c0.1,0.1,0.1,0.3,0.3,0.4c0.1,0.2,0.3,0.4,0.6,0.6l4.1,4l-0.6,0.7l-4.3-4.3c-0.3-0.3-0.5-0.5-0.6-0.7
			c-0.1-0.2-0.3-0.4-0.3-0.6c-0.1-0.2-0.1-0.4-0.1-0.6c0-0.3,0.1-0.6,0.3-0.9c0.2-0.3,0.4-0.5,0.7-0.6c0.3-0.1,0.7-0.2,1.1-0.2
			c0.4,0,0.7,0.1,1,0.2c0.3,0.1,0.5,0.3,0.7,0.6c0.2,0.2,0.2,0.5,0.2,0.9c0,0.3-0.1,0.6-0.2,0.8c-0.1,0.2-0.4,0.5-0.7,0.7
			c-0.3,0.2-0.7,0.5-1.3,0.8c-0.4,0.2-0.8,0.4-1,0.6c-0.2,0.2-0.4,0.4-0.5,0.6c-0.1,0.2-0.2,0.4-0.2,0.6c0,0.2,0.1,0.5,0.2,0.6
			c0.1,0.2,0.3,0.3,0.6,0.4c0.3,0.1,0.6,0.2,0.9,0.2c0.5,0,0.9-0.1,1.3-0.3c0.4-0.2,0.7-0.5,1-1c0.3-0.4,0.5-1,0.6-1.6l0.8,0.3
			c-0.1,0.7-0.4,1.4-0.8,1.9c-0.4,0.5-0.8,0.9-1.3,1.2C93.8,25,93.2,25.1,92.6,25.1z M104,25.1c-0.6,0-1.1-0.1-1.6-0.3
			c-0.5-0.2-0.9-0.5-1.3-0.8c-0.4-0.4-0.6-0.8-0.8-1.3c-0.2-0.5-0.3-1-0.3-1.6s0.1-1.1,0.3-1.6c0.2-0.5,0.5-0.9,0.9-1.2
			c0.4-0.4,0.8-0.6,1.3-0.8c0.5-0.2,1-0.3,1.6-0.3c0.6,0,1.1,0.1,1.6,0.3c0.5,0.2,0.9,0.5,1.3,0.9l-0.7,0.7c-0.3-0.3-0.6-0.5-1-0.7
			c-0.4-0.2-0.8-0.2-1.2-0.2c-0.4,0-0.8,0.1-1.2,0.2c-0.4,0.1-0.7,0.4-1,0.6c-0.3,0.3-0.5,0.6-0.6,0.9c-0.1,0.4-0.2,0.8-0.2,1.2
			c0,0.4,0.1,0.8,0.2,1.2c0.2,0.4,0.4,0.7,0.6,0.9c0.3,0.3,0.6,0.5,1,0.6c0.4,0.1,0.8,0.2,1.2,0.2c0.4,0,0.8-0.1,1.2-0.2
			c0.4-0.2,0.7-0.4,1-0.7l0.7,0.7c-0.4,0.4-0.8,0.7-1.3,0.9C105.2,25,104.6,25.1,104,25.1z M111.7,25v-1.2l-0.1-0.2v-2.1
			c0-0.4-0.1-0.8-0.4-1c-0.3-0.2-0.6-0.4-1.2-0.4c-0.3,0-0.7,0.1-1,0.2c-0.3,0.1-0.6,0.3-0.8,0.5l-0.4-0.8c0.3-0.2,0.7-0.4,1.1-0.6
			c0.4-0.1,0.9-0.2,1.3-0.2c0.8,0,1.4,0.2,1.8,0.6c0.4,0.4,0.6,1,0.6,1.8V25H111.7z M109.8,25.1c-0.4,0-0.8-0.1-1.1-0.2
			c-0.3-0.1-0.6-0.3-0.7-0.6c-0.2-0.3-0.3-0.6-0.3-0.9c0-0.3,0.1-0.6,0.2-0.9c0.2-0.3,0.4-0.5,0.7-0.6c0.3-0.2,0.8-0.2,1.4-0.2h1.8
			v0.8H110c-0.5,0-0.9,0.1-1.1,0.3c-0.2,0.2-0.3,0.4-0.3,0.6c0,0.3,0.1,0.5,0.3,0.7c0.2,0.2,0.5,0.3,0.9,0.3c0.4,0,0.7-0.1,1-0.3
			c0.3-0.2,0.5-0.4,0.6-0.8l0.2,0.7c-0.1,0.3-0.4,0.6-0.7,0.8C110.8,25,110.3,25.1,109.8,25.1z M114.5,25v-5.8h1v1.6l-0.1-0.4
			c0.2-0.4,0.4-0.7,0.8-0.9c0.4-0.2,0.8-0.3,1.4-0.3v1c0,0-0.1,0-0.1,0c0,0-0.1,0-0.1,0c-0.6,0-1,0.2-1.3,0.5
			c-0.3,0.3-0.5,0.8-0.5,1.5V25H114.5z"/>
	</g>
</g>
<g id="Capa_3">
	<rect x="0.2" y="0.2" class="st10" width="249.6" height="41.5"/>
</g>
</svg>
